<?xml version="1.0" standalone="no"?>
<!DOCTYPE svg PUBLIC "-//W3C//DTD SVG 20010904//EN"
 "http://www.w3.org/TR/2001/REC-SVG-20010904/DTD/svg10.dtd">
<svg version="1.0" xmlns="http://www.w3.org/2000/svg"
 width="391.000000pt" height="391.000000pt" viewBox="0 0 391.000000 391.000000"
 preserveAspectRatio="xMidYMid meet">
<g transform="translate(0.000000,391.000000) scale(0.100000,-0.100000)"
fill="#376db4" stroke="none">
<path d="M1565 3903 c-124 -20 -233 -56 -314 -105 -39 -23 -141 -107 -180
-148 -30 -33 -93 -124 -118 -175 -24 -47 -65 -176 -59 -183 3 -2 27 1 53 7 63
15 89 20 143 27 25 3 56 7 70 10 31 5 292 5 340 0 19 -2 61 -7 92 -10 389 -42
759 -253 982 -561 66 -92 68 -94 125 -205 95 -186 151 -384 178 -635 9 -85 9
-358 -1 -440 -4 -33 -9 -78 -11 -100 -3 -22 -7 -51 -10 -65 -2 -14 -7 -41 -10
-60 -33 -203 -158 -574 -231 -685 -9 -14 -13 -25 -9 -25 4 0 58 28 119 62 61
33 140 77 176 96 298 160 495 376 609 669 22 57 48 150 56 203 2 19 8 60 13
90 9 62 8 205 -2 295 -22 192 -105 396 -231 567 -50 67 -340 358 -1038 1041
-218 213 -311 273 -485 313 -62 14 -211 24 -257 17z"/>
<path d="M1246 2574 c-185 -43 -334 -205 -372 -402 -13 -66 -12 -217 0 -277
21 -98 103 -211 192 -267 126 -80 331 -103 506 -59 91 24 244 95 297 139 l33
28 0 100 c0 422 -134 674 -391 734 -77 18 -196 20 -265 4z"/>
<path d="M1780 1008 c-132 -96 -326 -168 -515 -193 -59 -8 -217 -9 -260 -1
-16 2 -52 7 -80 11 -138 17 -336 88 -462 166 l-32 20 -32 -62 c-17 -35 -42
-103 -55 -153 -19 -77 -22 -110 -20 -211 2 -66 6 -129 9 -140 34 -129 83 -234
149 -319 35 -45 117 -126 128 -126 17 0 245 98 343 146 303 152 585 381 725
587 52 78 176 323 159 316 -1 0 -27 -19 -57 -41z"/>
</g>
</svg>
